<svg xmlns="http://www.w3.org/2000/svg" version="1.1" xmlns:xlink="http://www.w3.org/1999/xlink" xmlns:svgjs="http://svgjs.dev/svgjs" width="2000" height="2242" viewBox="0 0 2000 2242"><g transform="matrix(1,0,0,1,-3.114115860409015,0)"><svg viewBox="0 0 321 360" data-background-color="#ffffff" preserveAspectRatio="xMidYMid meet" height="2242" width="2000" xmlns="http://www.w3.org/2000/svg" xmlns:xlink="http://www.w3.org/1999/xlink"><g id="tight-bounds" transform="matrix(1,0,0,1,0.5001844044044219,0)"><svg viewBox="0 0 320 360" height="360" width="320"><g><svg></svg></g><g><svg viewBox="0 0 320 360" height="360" width="320"><g><path d="M294.684 112.125c-8.775-10.699-25.381-16.201-43-22.006-7.56-2.498-15.357-5.097-22.985-8.235-7.695-3.173-15.256-7.257-22.613-11.172-14.952-8.033-30.41-16.336-46.105-16.336-15.661 0-31.119 8.303-46.071 16.336-7.358 3.949-14.952 8.033-22.648 11.205-7.594 3.139-15.425 5.704-22.985 8.236-17.618 5.839-34.224 11.341-42.999 22.006-11.712 14.277-11.442 35.439-11.172 57.817 0.034 3.375 0.068 6.717 0.067 10.024 0 3.308-0.034 6.649-0.101 10.024-0.27 22.411-0.54 43.54 11.172 57.851 8.775 10.666 25.381 16.167 42.966 22.006 7.56 2.498 15.357 5.097 23.019 8.235 7.695 3.173 15.256 7.223 22.579 11.172 14.986 8.067 30.444 16.37 46.105 16.37 15.695 0 31.153-8.303 46.105-16.336 7.358-3.949 14.918-8.033 22.614-11.172 7.594-3.139 15.357-5.704 22.884-8.202 17.72-5.873 34.326-11.374 43.101-22.039 11.712-14.277 11.442-35.439 11.171-57.817-0.034-3.409-0.101-6.75-0.101-10.058 0-3.308 0.034-6.649 0.101-9.991 0.371-22.479 0.641-43.641-11.104-57.918zM305.552 103.215c-15.728-19.171-45.801-23.727-71.486-34.326-22.985-9.45-46.375-28.588-74.051-28.587-27.676 0-51.066 19.137-74.052 28.587-25.719 10.598-55.758 15.155-71.486 34.326-17.078 20.791-14.311 50.121-14.311 76.785 0 26.63-2.768 55.994 14.277 76.785 15.728 19.171 45.801 23.727 71.487 34.326 22.985 9.484 46.375 28.588 74.051 28.587 27.676 0 51.066-19.103 74.051-28.587 25.719-10.598 55.758-15.155 71.486-34.326 17.045-20.791 14.277-50.121 14.277-76.785 0.068-26.664 2.835-55.994-14.243-76.785zM309.872 189.923c0.304 23.221 0.574 45.059-12.083 60.483-9.518 11.577-26.664 17.281-44.822 23.289-7.56 2.498-15.29 5.063-22.715 8.134-7.493 3.071-14.952 7.088-22.175 10.969-15.458 8.303-31.355 16.842-48.062 16.842-16.707 0-32.604-8.539-47.995-16.808-7.257-3.915-14.75-7.932-22.243-11.003-7.527-3.105-15.256-5.67-22.748-8.134-18.192-6.008-35.338-11.712-44.823-23.289-12.623-15.391-12.353-37.262-12.083-60.415 0.034-3.375 0.101-6.683 0.101-9.991 0-3.308-0.034-6.615-0.067-9.991-0.304-23.154-0.574-45.025 12.083-60.415 9.518-11.577 26.664-17.247 44.822-23.289 7.527-2.498 15.256-5.063 22.749-8.134 7.493-3.105 14.986-7.122 22.242-11.003 15.391-8.269 31.322-16.842 47.995-16.842 16.673 0 32.604 8.539 47.995 16.808 7.257 3.915 14.75 7.932 22.243 11.003 7.493 3.105 15.256 5.637 22.715 8.134 18.158 6.008 35.338 11.712 44.822 23.289 12.657 15.425 12.387 37.262 12.083 60.416-0.034 3.409-0.101 6.717-0.101 9.99 0 3.308 0.034 6.615 0.067 9.957z" fill="#085f63" fill-rule="nonzero" stroke="none" stroke-width="1" stroke-linecap="butt" stroke-linejoin="miter" stroke-miterlimit="10" stroke-dasharray="" stroke-dashoffset="0" font-family="none" font-weight="none" font-size="none" text-anchor="none" style="mix-blend-mode: normal" data-fill-palette-color="tertiary"></path></g><g transform="matrix(1,0,0,1,94.03424317617866,108)"><svg viewBox="0 0 131.93151364764267 144" height="144" width="131.93151364764267"><g><svg viewBox="0 0 131.93151364764267 144" height="144" width="131.93151364764267"><g><svg viewBox="0 0 131.93151364764267 144" height="144" width="131.93151364764267"><g id="textblocktransform"><svg viewBox="0 0 131.93151364764267 144" height="144" width="131.93151364764267" id="textblock"><g><svg viewBox="0 0 131.93151364764267 144" height="144" width="131.93151364764267"><g transform="matrix(1,0,0,1,0,0)"><svg width="131.93151364764267" viewBox="0.8833333333333333 -36.65 33.680098835294665 36.74074074074074" height="144" data-palette-color="#ffffff"><path d="M5.65 0L5.65 0Q2.3-0.5 1.3-3.08 0.3-5.65 1.7-9.6L1.7-9.6 8.3-28.35Q9.2-30.95 10.38-32.8 11.55-34.65 13.33-35.65 15.1-36.65 17.75-36.65L17.75-36.65Q21.75-36.65 23.78-34.45 25.8-32.25 27.15-28.35L27.15-28.35 33.7-9.6Q35.1-5.65 34.23-3.08 33.35-0.5 29.95 0L29.95 0Q27.2 0.35 25.18-0.65 23.15-1.65 22.75-3.9L22.75-3.9Q22.45-5.4 22.68-6.4 22.9-7.4 23.1-8L23.1-8Q23.25-8.5 23.13-8.97 23-9.45 22.35-9.45L22.35-9.45 13.05-9.45Q12.4-9.45 12.28-8.97 12.15-8.5 12.35-8L12.35-8Q12.55-7.4 12.75-6.4 12.95-5.4 12.7-3.9L12.7-3.9Q12.3-1.65 10.35-0.65 8.4 0.35 5.65 0ZM14.1-16.45L21.4-16.45 18.8-24.6Q18.7-25.1 18.48-25.38 18.25-25.65 17.75-25.65L17.75-25.65Q17.25-25.65 17.03-25.38 16.8-25.1 16.65-24.6L16.65-24.6 14.1-16.45Z" opacity="1" transform="matrix(1,0,0,1,0,0)" fill="#ffffff" class="wordmark-text-0" data-fill-palette-color="quaternary" id="text-0"></path></svg></g></svg></g></svg></g></svg></g></svg></g></svg></g></svg></g><defs></defs></svg><rect width="320" height="360" fill="none" stroke="none" visibility="hidden"></rect></g></svg></g></svg>